<svg xmlns="http://www.w3.org/2000/svg" width="70" height="67" fill="none" viewBox="0 0 120 67">
    <path
    fill="#fff"
    d="M0 52.388V5.896h19.862c2.132 0 4.158.458 6.077 1.375 1.919.917 3.529 2.11 4.83 3.581a17.062 17.062 0 013.134 5.052c.768 1.876 1.151 3.773 1.151 5.692 0 2.728-.607 5.286-1.823 7.674-1.215 2.387-2.974 4.338-5.277 5.851-2.303 1.514-4.894 2.27-7.772 2.27h-9.435v14.997H0zm10.747-24.365h8.795c1.322 0 2.42-.565 3.294-1.695.896-1.151 1.344-2.729 1.344-4.732 0-2.025-.501-3.57-1.503-4.637-1.003-1.087-2.186-1.63-3.55-1.63h-8.38v12.694zM39.386 35.153c0-3.325.672-6.342 2.015-9.049 1.344-2.707 3.23-4.839 5.661-6.395 2.453-1.577 5.224-2.366 8.316-2.366 2.538 0 4.787.554 6.749 1.663 1.962 1.087 3.55 2.632 4.765 4.636v-5.627h9.116V50.02c0 5.18-1.844 9.305-5.533 12.375C66.807 65.466 62.01 67 56.082 67c-6.802 0-12.26-2.291-16.376-6.875l5.661-5.723c1.258 1.45 2.836 2.6 4.734 3.453a14.43 14.43 0 005.981 1.28c1.3 0 2.505-.182 3.614-.544a8.844 8.844 0 002.975-1.567c.895-.704 1.588-1.652 2.079-2.846.511-1.194.767-2.58.767-4.157v-3.325c-1.023 1.855-2.516 3.293-4.477 4.317-1.94 1.002-4.073 1.502-6.397 1.502-2.964 0-5.619-.778-7.964-2.334-2.346-1.577-4.148-3.677-5.406-6.299-1.258-2.643-1.887-5.553-1.887-8.729zm26.131 4.253V32.21c-.682-1.79-1.748-3.229-3.198-4.316-1.429-1.087-2.953-1.63-4.574-1.63-2.196 0-4.03.916-5.501 2.749-1.45 1.812-2.175 3.954-2.175 6.427 0 2.515.778 4.604 2.335 6.267 1.578 1.663 3.529 2.494 5.853 2.494a7.375 7.375 0 004.254-1.311c1.3-.874 2.303-2.036 3.006-3.485zM113.923 19.517c-.49-.618-2.079-1.513-4.766-2.686-2.665-1.172-5.202-1.758-7.612-1.758-3.86 0-5.789 1.279-5.789 3.837 0 .725.16 1.343.48 1.854.341.512.991.992 1.95 1.44.96.447 1.835.799 2.624 1.055.789.255 2.1.639 3.934 1.15.362.107.629.182.799.224 1.941.533 3.593 1.066 4.958 1.6a21.816 21.816 0 013.934 1.95c1.279.767 2.303 1.62 3.07 2.558.768.938 1.376 2.078 1.823 3.42.448 1.322.672 2.836.672 4.541 0 2.047-.32 3.89-.96 5.532-.639 1.62-1.503 2.963-2.59 4.029-1.088 1.066-2.388 1.96-3.902 2.686a19.44 19.44 0 01-4.734 1.503c-1.642.298-3.39.447-5.245.447-3.454 0-6.951-.511-10.491-1.535-3.518-1.023-6.631-2.43-9.34-4.22l4.702-9.369c.235.277.821.693 1.76 1.247.959.554 2.121 1.162 3.486 1.823 1.386.64 2.995 1.193 4.83 1.662 1.854.47 3.613.704 5.277.704 3.795 0 5.693-1.151 5.693-3.453 0-.384-.054-.736-.16-1.056a2.424 2.424 0 00-.544-.927 8.284 8.284 0 00-.767-.735c-.256-.235-.63-.47-1.12-.704a19.17 19.17 0 00-1.311-.575c-.384-.17-.917-.363-1.599-.576-.683-.213-1.259-.394-1.728-.544-.469-.149-1.13-.34-1.983-.575a54.417 54.417 0 01-2.079-.608c-2.217-.682-4.083-1.396-5.597-2.142-1.492-.746-2.772-1.62-3.838-2.622-1.066-1.002-1.844-2.153-2.335-3.453-.49-1.322-.735-2.857-.735-4.604 0-2.388.458-4.552 1.375-6.491.917-1.94 2.154-3.528 3.71-4.765 1.578-1.236 3.401-2.185 5.47-2.845 2.068-.682 4.275-1.024 6.62-1.024 5.416 0 11.003 1.695 16.76 5.084l-4.702 8.921z"
    ></path>
    <path fill="#002776" d="M41.109 0h34.836v3.572H41.109V0z"></path>
    <path fill="#009C3B" d="M41.109 3.572h34.836v3.572H41.109V3.572z"></path>
    <path fill="#FFDF00" d="M41.109 7.144h34.836v3.572H41.109V7.144z"></path>
</svg>